<?xml version="1.0" encoding="utf-8"?><svg xmlns="http://www.w3.org/2000/svg" xmlns:xlink="http://www.w3.org/1999/xlink"><symbol viewBox="0 0 139.4 44.7" id="dorohovdesign"><path d="M52.2 19.5V8.1H57c3.6 0 6.1 2.1 6.1 5.7 0 3.5-2.6 5.7-6.1 5.7h-4.8zm7.9-5.7c0-1.8-1.1-3.1-3.1-3.1h-1.9v6.2H57c2 0 3.1-1.4 3.1-3.1m4.1 0c0-3.4 2.6-5.9 6.1-5.9 3.5 0 6.1 2.4 6.1 5.9 0 3.5-2.6 5.9-6.1 5.9-3.5 0-6.1-2.4-6.1-5.9m9.2 0c0-1.9-1.2-3.3-3.1-3.3-1.9 0-3.1 1.4-3.1 3.3 0 1.8 1.2 3.3 3.1 3.3 1.9 0 3.1-1.4 3.1-3.3m11 5.7l-1.9-3.8H81v3.8h-2.9V8.1h5.7c2.5 0 3.9 1.7 3.9 3.8 0 2-1.2 3-2.3 3.4l2.3 4.2h-3.3zm.3-7.6c0-.8-.6-1.2-1.4-1.2H81v2.4h2.3c.8 0 1.4-.4 1.4-1.2m4.2 1.9c0-3.4 2.6-5.9 6.1-5.9 3.5 0 6.1 2.4 6.1 5.9 0 3.5-2.6 5.9-6.1 5.9-3.5 0-6.1-2.4-6.1-5.9m9.1 0c0-1.9-1.2-3.3-3.1-3.3-1.9 0-3.1 1.4-3.1 3.3 0 1.8 1.2 3.3 3.1 3.3 1.9 0 3.1-1.4 3.1-3.3m12.4 5.7v-4.6h-4.7v4.6h-3V8.1h3v4.3h4.7V8.1h2.9v11.4zm4.6-5.7c0-3.4 2.6-5.9 6.1-5.9 3.5 0 6.1 2.4 6.1 5.9 0 3.5-2.6 5.9-6.1 5.9-3.5 0-6.1-2.4-6.1-5.9m9.2 0c0-1.9-1.2-3.3-3.1-3.3-1.9 0-3.1 1.4-3.1 3.3 0 1.8 1.2 3.3 3.1 3.3 1.9 0 3.1-1.4 3.1-3.3m7.3 5.7l-4.3-11.4h3.3l2.8 8.2 2.8-8.2h3.3l-4.2 11.4zm-79.3 17V25.1H57c3.6 0 6.1 2.1 6.1 5.7 0 3.5-2.6 5.7-6.1 5.7h-4.8zm7.9-5.7c0-1.8-1.1-3.1-3.1-3.1h-1.9v6.2H57c2 0 3.1-1.4 3.1-3.1m4.7 5.7V25.1h8.3v2.6h-5.3v1.8H73V32h-5.2v1.9h5.3v2.6zm9.6-1.6l1.5-2.2c.8.8 2.1 1.5 3.6 1.5 1 0 1.6-.4 1.6-.9 0-1.5-6.4-.3-6.4-4.7 0-1.9 1.6-3.6 4.5-3.6 1.8 0 3.4.5 4.6 1.6l-1.6 2.1c-1-.8-2.2-1.2-3.3-1.2-.8 0-1.2.3-1.2.8 0 1.4 6.4.4 6.4 4.6 0 2.3-1.7 3.8-4.7 3.8-2.2 0-3.8-.7-5-1.8m11.5-9.8h2.9v11.3h-2.9zm4.7 5.7c0-3.6 2.8-5.9 6.1-5.9 2.5 0 4.1 1.3 4.8 2.8L99.1 29c-.4-.7-1.3-1.4-2.4-1.4-1.9 0-3.2 1.4-3.2 3.3s1.3 3.3 3.2 3.3c.8 0 1.7-.3 2.1-.7v-.9h-2.6V30h5.5v4.5c-1.2 1.3-2.9 2.2-5 2.2-3.4 0-6.1-2.3-6.1-5.9m20.9 5.7l-4.8-6.6v6.6h-2.9V25.1h3l4.6 6.3v-6.3h2.9v11.4zM17.7 0H0v44.7h17.8c15 0 24.6-8.8 24.6-22.4C42.4 8.7 32.7 0 17.7 0m-.4 35.7h-8V9.5h8c9.3 0 15.7 3.7 15.7 12.7.1 7.5-5.8 13.5-15.7 13.5"/><path d="M19.1 17H17v10.6h2c4 0 6.4-2.4 6.4-5.4 0-3.7-2.6-5.2-6.3-5.2"/></symbol><symbol viewBox="0 0 124.099 124.1" id="email"><path d="M18.25 106.7c5.6 5.399 12.3 9.8 20.1 12.8 7.8 3 16.5 4.6 25.9 4.6 10.5 0 20.2-1.6 28.9-4.899 7.9-2.9 1.1-17.601-4.7-15.2-6.399 2.7-14.2 4.1-23.101 4.1-7 0-13.399-1.1-19-3.199-5.6-2.101-10.5-5.101-14.5-9-4-3.9-7.2-8.7-9.4-14.2-2.3-5.601-3.4-12-3.4-19 0-6.6 1.1-12.9 3.3-18.5 2.2-5.6 5.2-10.6 9.2-14.6 3.9-4.1 8.7-7.4 14.2-9.7 5.5-2.3 11.7-3.5 18.5-3.5 6.301 0 12.1.9 17.301 2.5 5.1 1.6 9.5 4.1 13.199 7.4 3.7 3.3 6.6 7.3 8.7 12.1 2.101 4.8 3.101 10.4 3.101 16.8 0 3.7-.4 7.2-1.201 10.5-.799 3.1-1.799 5.899-3.199 8.1-1.301 2.101-2.801 3.8-4.6 5-2.101 1.4-5.201 2.2-7.601 1.4-3-1-2.399-5.2-2.2-7.7.301-3.4 1.2-6.6 1.9-9.9 1.1-5.4 2.3-10.7 3.4-16 .6-2.9 1.299-5.9 1.899-8.8.8-3.7-2-7.3-5.899-7.3h-4.4c-2.7 0-5.1 1.8-5.801 4.4-.299 1.2-.6 2.2-.6 2.2-2.199-6.8-10.3-8.7-16.7-8.6-8.4.1-16.1 4.4-21.7 10.5-.5.6-1.1 1.2-1.6 1.8-2.9 3.5-5.1 7.6-6.6 11.9-1.6 4.6-2.4 9.3-2.4 14.1 0 4.101.6 8 1.7 11.5 1.2 3.601 2.9 6.7 5.1 9.3 2.2 2.601 5 4.7 8.3 6.2 3.3 1.5 7 2.3 11 2.3 3 0 5.8-.5 8.3-1.399 2.4-.9 4.6-2 6.5-3.3 1.5-1 2.9-2.2 4-3.301.699 1.301 1.5 2.4 2.6 3.5 2.801 3 7.1 4.5 12.801 4.5 4.5 0 8.899-.899 13-2.699 4.1-1.801 7.799-4.601 10.899-8.2 3-3.601 5.5-8 7.3-13.2 1.801-5.2 2.7-11.2 2.7-17.8 0-9-1.7-17-5-23.7s-7.8-12.4-13.399-16.9c-5.5-4.5-11.9-7.8-19-10.1C79.05 1.1 71.75 0 64.25 0c-8.7 0-17 1.6-24.7 4.7-7.7 3.2-14.5 7.6-20.2 13.1-5.8 5.5-10.4 12.2-13.7 19.7-3.3 7.5-5 15.9-5 24.7 0 8.899 1.5 17.3 4.6 24.8 3 7.6 7.4 14.2 13 19.7zm54.099-42c-.699 2.7-1.699 5.3-3.1 7.7-1.4 2.3-3.1 4.199-5.3 5.699-2 1.4-4.4 2.101-7.4 2.101-1.9 0-3.4-.4-4.5-1.101-1.2-.8-2.2-1.8-2.9-3.1-.8-1.4-1.3-2.9-1.6-4.4-.3-1.6-.5-3.1-.5-4.399 0-2.8.4-5.6 1.2-8.5.8-2.8 1.9-5.4 3.4-7.6 1.5-2.2 3.2-4 5.3-5.4 1.9-1.3 4-1.9 6.5-1.9 2 0 3.601.3 4.8 1 1.2.7 2.2 1.6 2.9 2.7.8 1.2 1.3 2.6 1.699 4.1.4 1.7.601 3.5.601 5.2-.1 2.5-.399 5.1-1.1 7.9z"/></symbol><symbol viewBox="0 0 96.124 96.123" id="fb"><path d="M72.089.02L59.624 0C45.62 0 36.57 9.285 36.57 23.656v10.907H24.037a1.96 1.96 0 0 0-1.96 1.961v15.803a1.96 1.96 0 0 0 1.96 1.96H36.57v39.876a1.96 1.96 0 0 0 1.96 1.96h16.352a1.96 1.96 0 0 0 1.96-1.96V54.287h14.654a1.96 1.96 0 0 0 1.96-1.96l.006-15.803a1.963 1.963 0 0 0-1.961-1.961H56.842v-9.246c0-4.444 1.059-6.7 6.848-6.7l8.397-.003a1.96 1.96 0 0 0 1.959-1.96V1.98A1.96 1.96 0 0 0 72.089.02z"/></symbol><symbol viewBox="0 0 97.395 97.395" id="inst"><path d="M12.501 0h72.393c6.875 0 12.5 5.09 12.5 12.5v72.395c0 7.41-5.625 12.5-12.5 12.5H12.501C5.624 97.395 0 92.305 0 84.895V12.5C0 5.09 5.624 0 12.501 0zm58.447 10.821a4.395 4.395 0 0 0-4.383 4.385v10.495a4.396 4.396 0 0 0 4.383 4.385h11.008a4.398 4.398 0 0 0 4.385-4.385V15.206a4.397 4.397 0 0 0-4.385-4.385H70.948zm15.439 30.367h-8.572a28.486 28.486 0 0 1 1.25 8.355c0 16.2-13.556 29.332-30.275 29.332-16.718 0-30.272-13.132-30.272-29.332 0-2.904.438-5.708 1.25-8.355h-8.945v41.141a3.884 3.884 0 0 0 3.872 3.872h67.822a3.883 3.883 0 0 0 3.872-3.872V41.188h-.002zM48.789 29.533c-10.802 0-19.56 8.485-19.56 18.953s8.758 18.953 19.56 18.953c10.803 0 19.562-8.485 19.562-18.953s-8.758-18.953-19.562-18.953z"/></symbol><symbol viewBox="0 0 510.2 446.2" id="logotip"><path fill-rule="evenodd" clip-rule="evenodd" fill="#91C13D" d="M360.4 245.5c-16.7-1.9-28.8-1.4-37.7 1-6 1.6-5.7 2.1-.3-1.8 47.1-34.8 94.9-54.1 144.2-42.7 10.7 2.5 16 4.5 24.7 11.4 6.6 5.2 12.4 11.8 17.1 21.2 3.3 6.8 1.9 4.4-1.7.5-9.4-10.2-19.1-17.5-29.2-20.8-7.2-2.4-10.5-3.8-3.5 1.8 6.3 5 11.9 11.2 16.4 19.4 3.7 6.8.8 2.9-2.6-.1-11.1-10.1-21.6-17.3-31.4-21.3-6.8-2.8-11.9-5.7-3.9.6 4.8 3.8 10.2 9.8 16.8 19.8 3.5 5.3 4.5 5.9-1 1.7-9.6-7.5-20.8-15.4-31-19.4-7.2-2.8-9.8-4.2-2.8 1.4 6.2 4.9 13.3 12 18.9 19.7 5.2 7 2.3 3.6-1.8.3-10.6-8.5-21.6-13.5-31.4-16.5-7.8-2.4-8.7-3.2-2.2 2 6.8 5.5 12.6 11.2 17 17 3.8 5 2.5 3.5-1.4.9-11.4-7.7-22.4-12.2-32.9-14.4-10.6-2.2-10.9-2.6-2.6 2.8 5.5 3.6 10.7 8.1 15.6 14.4 3.7 4.8 2.4 3.3-1.7 1.1-11.6-6.5-21.4-9.7-30-10.9-11.8-1.6-10.5-1.3-1.4 2.3 4.6 1.8 8.4 4 11 6.6 4.8 5-.4 2.2-3.7 1.2-10.6-3.2-18.9-4.6-26.2-5.1-5.2-.3-13.2-1.3-3.5 1 5.3 1.3 9 2.8 11.6 4.6 6.3 4-5.9.7-9.4.3zm-128.1-2.3c19.4-1.8 32.7-.7 43 1.8 7.5 1.9 10.5 4.4 2.3-2.3-46.3-38.2-94.1-60.3-144.8-50.6-11 2.1-16.5 3.9-25.7 10.8-6.9 5.2-13.3 11.8-18.4 21.4-3.7 6.9-2.2 4.5 1.7.6 10.1-10.2 20.3-17.4 30.8-20.5 7.5-2.2 10.9-3.5 3.5 2-6.7 4.9-12.7 11.2-17.7 19.6-4.1 7-1 3 2.6 0 11.9-10 22.9-17.1 33.1-20.8 7-2.6 12.4-5.5 4 .8-5.1 3.8-10.9 9.8-18 19.9-3.8 5.4-4.8 6 .9 1.8 10.2-7.4 21.9-15.2 32.6-18.9 7.5-2.6 10.2-4 2.8 1.6-6.6 4.8-14.1 11.9-20.3 19.8-5.6 7.1-2.5 3.7 1.9.4 11.2-8.5 22.7-13.1 32.9-15.8 8.1-2.2 9-3 2.2 2.2-7.2 5.5-13.4 11.1-18.2 17.1-4.1 5.1-2.7 3.6 1.4 1 12.1-7.6 23.5-11.8 34.4-13.5 10.9-1.8 11.3-2.3 2.6 3-5.7 3.5-11.3 8-16.6 14.3-4 4.9-2.6 3.4 1.6 1.2 12.2-6.3 22.3-9.2 31.2-10 12.1-1.1 10.8-.9 1.3 2.4-3.2 1.1-6 2.4-8.4 3.9-11.5 7.4-2.2 4.5 3.6 3.1 9.5-2.3 17.2-3.2 24-3.4 5.3-.1 13.6-.8 3.5 1.2-4.2.8-7.5 1.9-10 3.1-6.1 2.9-5.9 3.4.2 2.8zm16.1-35.4c12 5.5 24.1 12.4 36.1 22.6 6.5 5.5 8.4 9.8 4.8-.6-11.4-32.7-26.5-58.9-45-79.2-9.1-10-18.6-18.6-29.8-24.7-11.9-6.5-26.3-10.7-39.9-8.9-6.7.9-12.8 3-18.6 5.8-11.5 5.6-11.7 5.2-.3 3.1 10.3-1.9 21.9-2.3 32.8-.2 14.3 2.9 9.1 2.5-.6 3.5-8.5.9-16.6 2.8-22.6 6.6-6.3 4-5.2 3.8.7 2.7 9.8-1.7 19.7-2.7 30-1.9 18.6 1.4 9 .8 0 2.8-5.3 1.2-10 3.2-14.3 5.9-9.8 6-5.5 4.3 2.2 3.1 7.7-1.2 15.4-2 23.5-1.1 15.5 1.6 12 1.4 1.2 3.7-5.9 1.2-11 3.3-15.2 6.1-7.9 5.2-4 3.7 2.1 3.1 9-1 17.9-1.2 26.4.6 12.8 2.7 9.6 2.6 0 3.3-8.6.7-14.1 2.4-17.6 4.7-5.6 3.6-2.1 2.8 1.9 2.9 9.2.1 18.5.6 27.9 3 14.3 3.8 11.8 3.2.3 3.8-5.6.3-10 1.2-13.3 2.6-7.7 3.3-4.3 3.3.8 3.8 8.6.8 16.9 2.4 24.7 5.6 8.3 3.4 12 4.6 1.1 3.6-12.1-1.1-16.3.1-16 2.6 11.1 2.6 21.6 5.7 30.6 9.8 8.3 3.8 14.4 6.5 1.4 2.4-8.4-2.7-14.7-3.8-15.3-1.1z"/><path fill-rule="evenodd" clip-rule="evenodd" fill="#EF7C04" d="M122.5 5.1l1.8-.9c9.9 6.4 26.3 41.5 11.8 44.4-11.2 2.3-10.2-15.7-9.8-22.7.5-8.5-1.8-16.2-3.8-20.8z"/><path fill-rule="evenodd" clip-rule="evenodd" fill="#FFD900" d="M167.8.4c.8-.2 1-.2 1.8-.4 7.5 7.7 14.9 42.3 1.4 41.9-10.4-.3-5.8-16-4.1-22.2 2.2-7.5 1.7-14.8.9-19.3zM78.6 23.5c.7-.6.8-.8 1.5-1.4 11.3 3.2 37.2 32.1 24.2 39.1-10.1 5.4-14.3-12.1-16-18.9-2.1-8.3-6.5-14.9-9.7-18.8z"/><path fill-rule="evenodd" clip-rule="evenodd" fill="#EF7C04" d="M42.5 53.3c.5-.8.6-1 1-1.8 11.8-.2 44.8 20.1 34.3 30.6-8.1 8.1-17.1-7.5-20.7-13.6-4.3-7.3-10.4-12.5-14.6-15.2z"/><path fill-rule="evenodd" clip-rule="evenodd" fill="#FFD900" d="M12.6 90.9c.2-.9.3-1.1.5-2C24.3 85.3 61.9 95 54.9 108c-5.4 10.1-18.6-2.1-23.8-6.9-6.3-5.7-13.7-8.8-18.5-10.2z"/><path fill-rule="evenodd" clip-rule="evenodd" fill="#EF7C04" d="M3.5 134.1c0-.8 0-1-.1-1.7 8.4-5.5 41.4-6.1 38.6 6.2-2.1 9.5-15.7 2.5-21-.2-6.5-3.4-13.2-4.3-17.5-4.3z"/><path fill-rule="evenodd" clip-rule="evenodd" fill="#FFD900" d="M1.8 174.2c-.2-.6-.3-.8-.5-1.5C7 165.9 35 157 35.8 168.2c.6 8.6-12.8 6.1-18 5.2-6.4-1.2-12.3-.2-16 .8z"/><path fill-rule="evenodd" clip-rule="evenodd" fill="#EF7C04" d="M6.7 207.2c-.2-.5-.3-.6-.5-1.1 4.3-5.7 26.2-14 27.3-5.1.9 6.9-9.9 5.4-14.2 4.9-5-.7-9.8.3-12.6 1.3z"/><path fill-rule="evenodd" clip-rule="evenodd" fill="#91C13D" d="M290.6 194.3c5.7 8.4 10.3 20.2 14.2 32.7 2.6 8.3 2.1 11.6 4 1.2 6-31.6 6-62.8-1.6-85.6-3.3-10.1-6.6-17.5-11.9-23.9-10.6-12.7-23-18.1-37.5-20.7-20-3.5-13-2-.3 3.3 6.3 2.6 12.3 5.8 17.7 9.7 9.8 7.3 5.9 4.5-.9 2.6-4.2-1.1-8.4-1.5-12.8-1.2-.8.1-1.7.1-2.5.2-8 .9-5.7.9.1 2.7 10.6 3.2 19.7 7.3 26.1 12.8 7.3 6.3 2.8 3.9-2.8 2.5-5.1-1.3-9.4-2-12.9-2.2-7.6-.6-10.5-.7-2.2 2.6 7.8 3.1 15.6 6.7 23.1 12.2 4.8 3.5 7.5 4.8.4 2.5-6.7-2.1-12.2-3-16.6-2.8-6.9.2-4.8.6-.4 2.7 7 3.3 13.9 7.2 20.9 12.9 8.6 7.1 3.5 3.7-2.8 1.6-5.6-1.9-10.1-2.8-13.7-2.8-7.6-.1-3.6 1 .2 3.1 8.8 4.8 17.4 10.7 23.9 18.3 5.8 6.7 4.2 5.2-1.6 1.9-4.6-2.6-9.2-4.7-13.3-6-10-3.2-6.6-1.5-1.2 2.7 5.3 4.1 10.5 9.8 15.1 16.1 6.4 8.6 5.6 7.1-1.4 1.6-2.8-2.2-5.6-4-8.4-5.3-9.5-3.9-3.6.7-.9 4.6zm67.8 16.2c-12.2 5.2-24.5 11.9-36.9 21.8-6.7 5.4-8.7 9.6-4.8-.7 12.2-32.5 28-58.4 47-78.2 9.3-9.8 19.1-18.2 30.5-24.1 12.1-6.3 26.7-10.1 40.4-8 6.7 1 12.8 3.3 18.6 6.2 11.4 5.9 11.7 5.5.2 3.1-10.3-2.1-22-2.8-33-.9-14.4 2.6-9.2 2.3.5 3.6 8.6 1.1 16.6 3.2 22.6 7.1 6.3 4.1 5.2 3.9-.8 2.7-9.8-1.9-19.8-3.1-30.2-2.6-18.8 1-9.1.6-.1 2.8 5.3 1.3 10 3.4 14.3 6.2 9.7 6.2 5.4 4.4-2.2 3-7.7-1.4-15.5-2.3-23.6-1.6-15.6 1.3-12.1 1.1-1.3 3.6 5.9 1.4 11 3.5 15.2 6.4 7.9 5.3 3.9 3.8-2.2 3-9-1.2-17.9-1.6-26.5 0-12.9 2.5-9.7 2.4-.1 3.3 8.6.9 14.1 2.7 17.6 5 5.5 3.7 2 2.9-2 2.8-9.3-.1-18.6.2-28.2 2.4-14.5 3.4-11.9 2.9-.4 3.8 5.6.4 10.1 1.4 13.4 2.9 7.6 3.4 4.2 3.4-.9 3.7-8.6.6-17.1 2-25 5.1-8.4 3.3-12.2 4.3-1.2 3.6 12.2-.8 16.4.5 16.1 2.9-11.2 2.4-21.9 5.2-31 9.1-8.4 3.6-14.6 6.2-1.4 2.4 8.5-2.1 14.9-3.1 15.4-.4z"/><path fill-rule="evenodd" clip-rule="evenodd" fill="#FFDA00" d="M179.6 49.5c39.1 0 74.4 16.2 99.6 42.3 8.2 8.5 5 5.4-2 1C255.3 79 229.3 71 201.5 71c-78.9 0-142.9 64-142.9 142.9 0 19.1 3.7 37.3 10.5 54 4.1 10 3.5 8.5-2.4.3-16.1-22.6-25.6-50.3-25.6-80.3 0-76.4 62-138.4 138.5-138.4z"/><path fill-rule="evenodd" clip-rule="evenodd" fill="#FFD900" d="M16.3 236.8c-.2-.4-.3-.5-.6-.9 2.8-5.5 20.4-15.7 22.7-8.3 1.7 5.8-7.7 6.1-11.4 6.2-4.5.2-8.4 1.8-10.7 3z"/><path fill-rule="evenodd" clip-rule="evenodd" fill="#EF7C04" d="M34.4 263.6c-.2-.3-.3-.3-.6-.6 1.3-4.6 13.1-15 15.9-9.7 2.2 4.1-4.9 5.7-7.7 6.4-3.3.8-6 2.6-7.6 3.9zM214.3 3h1.9c5.5 9.2 4.5 44.6-8.5 41.1-10.1-2.7-1.9-17 1.3-22.6 3.8-6.7 5-13.9 5.3-18.5z"/><path fill-rule="evenodd" clip-rule="evenodd" fill="#FFD900" d="M253.2 22c.7.1.8.2 1.5.3 3.2 8.4-2.9 37.3-13.1 32.5-7.9-3.7 1-14.2 4.4-18.3 4.2-5.1 6.3-10.8 7.2-14.5z"/><path fill-rule="evenodd" clip-rule="evenodd" fill="#EF7C04" d="M283.6 46.1c.5.3.6.3 1.1.6.3 7.2-11.4 27.8-18 21.6-5.1-4.8 4.2-10.6 7.9-12.9 4.4-2.8 7.4-6.6 9-9.3z"/><path fill-rule="evenodd" clip-rule="evenodd" fill="#FFD900" d="M303.3 71.9c.3.3.4.4.7.6-1.1 5.5-13.6 18.8-17.4 12.9-2.9-4.5 5.1-7.2 8.3-8.2 3.7-1.3 6.7-3.6 8.4-5.3z"/><path fill-rule="evenodd" clip-rule="evenodd" fill="#3286C7" d="M82.8 303.8c-62-2.1-79.3 51-60.1 98.9 4.1 10.1 11.5 21-3.4 4.9-4.5-4.8-8.2-10.2-11.1-16.2-7.4-15.1-10-35-6.9-51.5 7.8-41.5 49.5-60.1 85.7-41.2 17.2 9 6.3 5.4-4.2 5.1z"/><path fill-rule="evenodd" clip-rule="evenodd" fill="#3286C7" d="M125.9 355.4c.2-2.8-.1-5.8-.8-8.6-2.5-10.1-8.6-16.9-17.7-21.4-4.2-2-8.7-3.5-13.1-4.4-23.3-4.8-48.2 7.8-56.3 36.7-6.7 23.7-1.1 47.2 15.8 66.1 48.3 54 131.4-3 175.9-31 26.4-16.6 50.5-27.6 72.5-34.9 21.7-7.2 39-9.5 61.5-10.4 6-.2 12.7-.4 20.2-.5 19.7-.3 18.3-.6-.6-4.3-29-5.7-58.6-3.5-88.4 2.3-32.2 4.4-73.4 25.4-111.7 44.4-23.2 11.5-38 20-64.5 22.4-50.2 4.6-69.5-39.8-42.7-67.7 6.7-7 15.8-9.2 24.8-6.6 18 5.2 23.6 19.7 14.1 33.7-2 2.9-2.3 3.3.9 1.9 1.2-.5 2.8-2 4.2-3.6 3.2-3.8 5.6-9 5.9-14.1z"/><path fill-rule="evenodd" clip-rule="evenodd" fill="#2B465F" d="M467.3 293.4l2.6-7.7c-1.4-.2-2.8-.6-3.8-1.6-.9-1-1.5-2.1-1.9-3.4l-.1-.4 4.1-3v1.7c0 .9.2 1.7.8 2.4.5.6 1.2.9 1.9 1.1.2-.5.4-1 .6-1.6.4-1.2.9-2.3 1.4-3.4.6-1.4 1.4-2.7 2.2-4 .9-1.4 1.9-2.7 3.1-3.8 1.2-1.2 2.6-2.1 4.1-2.9 1.7-.8 3.5-1.2 5.3-1.2 1.6 0 3 .4 4.3 1.2 1.5 1 2.1 2.5 2.1 4.2 0 1.9-.8 3.7-2 5.2-1.3 1.7-2.9 3.2-4.7 4.5-1.9 1.4-4 2.5-6.2 3.4-1.9.8-3.9 1.4-6 1.8l-5.9 17.8c-.3.9-.5 1.9-.8 2.8-.2.8-.4 1.7-.4 2.5s.3 1.5.8 2.1c.6.8 2.1.9 3 .9.5 0 1.2 0 1.6-.2.2-.1.3-.2.5-.3-.9-.8-1.6-1.8-2.2-2.9-.8-1.7-1-3.8-1-5.7 0-1.8.4-3.7.8-5.4.6-2.1 1.4-4.1 2.5-6 1.1-1.9 2.5-3.5 4.3-4.9 1.8-1.4 3.8-2.1 6.1-2.1 1 0 1.9.2 2.8.6.8.4 1.5.9 2.1 1.6.6.7 1 1.4 1.3 2.3.3.9.4 1.7.4 2.6 0 2.3-.6 4.4-1.5 6.4-1 2.1-2.2 4.1-3.6 6-1.3 1.7-2.7 3.3-4.3 4.8-.8.7-1.6 1.5-2.5 2.1.1 0 .1 0 .2.1.4.1.9.2 1.3.2 2 0 3.9-.7 5.6-1.7 2-1.2 3.8-2.6 5.4-4.2 1.6-1.5 3.2-3.2 4.6-4.9 1-1.3 2.1-2.6 3.1-3.9.1-.2.2-.4.4-.5.1-.1.2-.3.3-.4l2-1.9-1.4 4.3-.1.1c-.2.3-.4.5-.5.7-1 1.4-2 2.7-3.1 4-1.4 1.8-3 3.4-4.6 5-1.7 1.6-3.6 3.1-5.7 4.3-2 1.2-4.2 1.8-6.6 1.8-.8 0-1.6-.1-2.4-.4-.6-.2-1.2-.4-1.8-.7l-2.7 1.2c-1.6.6-3.3.8-5 .8-1.6 0-3.2-.4-4.4-1.5-1-1-1.5-2.2-1.5-3.7 0-1.1.2-2.2.5-3.2.3-1.1.6-2.2 1-3.3l1.4-4.4c-.3.4-.6.8-.9 1.3-.8 1.1-1.6 2.1-2.4 3.1l-3.3 3.6c-1.2 1.3-2.6 2.4-4 3.5-1.4 1-2.9 1.9-4.5 2.6-1.5.7-3.1 1.1-4.7 1.1-.7 0-1.5-.1-2.2-.3-.6-.1-1.1-.3-1.7-.5l-2.1.9c-1.4.6-2.9.8-4.4.8-2 0-3.9-.6-5.2-2.1-1.3-1.6-1.7-3.6-1.7-5.6 0-1.6.3-3.2.8-4.8.6-1.7 1.3-3.4 2.2-5 1-1.7 2.1-3.3 3.4-4.8 1.3-1.5 2.7-2.9 4.3-4.1 1.5-1.2 3.1-2.1 4.9-2.9 1.7-.7 3.5-1.1 5.3-1.1 2 0 3.9.5 5.3 2 1.3 1.4 1.8 3.2 1.8 5.1 0 2.3-.6 4.6-1.5 6.7-1 2.1-2.2 4.1-3.6 6a48.1 48.1 0 0 1-4.2 4.8c-.7.7-1.5 1.4-2.3 2 .3.1.6.1.9.1 1.4 0 2.8-.3 4.2-.9 1.5-.6 2.8-1.4 4.1-2.4 1.3-1 2.6-2.1 3.8-3.3 1.1-1.1 2.2-2.3 3.3-3.5.9-1 1.8-2.1 2.6-3.2.6-.8 1.1-1.5 1.7-2.3l2.3-2.1zM192 291.7c-.1.3-.3.6-.4.9-1.4 2.9-2.7 5.9-3.9 8.9-1 2.5-2 5.1-2.8 7.7-.5 1.5-1.1 3.1-1.5 4.7l-.1.4-10.7 1.5 7.7-24c.9-2.7 1.7-5.4 2.4-8.1.4-1.7 1-3.8 1.1-5.5 0-.6-.1-1.2-.5-1.7-.4-.4-.8-.7-1.3-.9-.7-.2-1.3-.3-2-.4-.7-.1-1.5-.1-2.2-.1h-1l1-2.8 16.9-1.4-13.5 41.3h.2c.6-1.2 1-2.7 1.4-3.9.9-2.7 1.9-5.4 3-8 1.3-3.3 2.7-6.5 4.3-9.7 1.6-3.3 3.4-6.5 5.5-9.5 1.9-2.7 4-5.2 6.6-7.2 2.3-1.8 5-2.9 7.9-2.9 1.4 0 2.7.4 3.9 1.2l.5.3-3.5 6.5-.6-1.3c-.6-1.5-1.8-2-3.4-2-2 0-3.7 1-5.1 2.3-2 1.8-3.7 4-5.2 6.2-1.2 1.9-2.4 3.8-3.4 5.8h6l.3 1.6c.5 1.8.9 3.7 1.4 5.5.5 2.1 1.1 4.1 1.8 6.1.6 1.7 1.4 3.4 2.4 4.9.6.9 1.5 1.8 2.6 1.8 1.3 0 2.7-.7 3.8-1.3 1.7-1 3.3-2.3 4.8-3.6 1.7-1.5 3.4-3.1 5-4.8 1.3-1.4 2.6-2.8 3.8-4.2.8-2.1 1.7-4.1 2.8-6 1.4-2.5 3.1-4.9 5-7.1 1.9-2.2 4-4.3 6.3-6.1 2.2-1.7 4.7-3.2 7.3-4.2 2.5-1 5.1-1.6 7.8-1.6 2.9 0 5.7.7 7.7 2.9 1.9 2.1 2.6 4.7 2.6 7.4 0 3.4-.8 6.7-2.3 9.9-1.5 3.2-3.2 6.1-5.3 8.9-1.9 2.5-4 4.9-6.3 7.1-1.2 1.1-2.6 2.4-3.9 3.5.1 0 .3.1.4.1.6.1 1.1.2 1.7.2 2.2 0 4.3-.5 6.3-1.3 2.2-.9 4.3-2.1 6.2-3.6 2-1.5 3.9-3.1 5.7-4.9 1.3-1.3 2.6-2.7 3.9-4.1.8-2.4 1.9-4.8 3.2-7 1.4-2.5 3.1-4.9 5-7.1 1.9-2.2 4-4.3 6.3-6.1 2.2-1.7 4.7-3.2 7.3-4.2 2.5-1 5.1-1.6 7.8-1.6 2.9 0 5.7.7 7.7 2.9 1.9 2.1 2.6 4.7 2.6 7.4 0 3.4-.8 6.7-2.3 9.9-1.5 3.2-3.2 6.1-5.3 8.9-1.9 2.5-4 4.9-6.3 7.1-3.8 3.6-6.3 5.2-11 7.3-2 .9-4.2 1.2-6.4 1.2-2.9 0-5.6-.8-7.5-3-1.9-2.3-2.5-5.2-2.5-8.1 0-.9.1-1.7.2-2.6-.5.6-1.1 1.2-1.7 1.7-1.8 1.9-3.8 3.6-5.9 5.2-2 1.5-4.2 2.8-6.6 3.9-2.2 1-4.5 1.5-6.9 1.5-1.1 0-2.1-.1-3.2-.4-.9-.2-1.7-.5-2.6-.8-1 .5-2.2 1-3.2 1.5-2 .9-4.2 1.2-6.4 1.2-2.9 0-5.6-.8-7.5-3-1.9-2.3-2.5-5.2-2.5-8.1 0-1.1.1-2.1.3-3.1-.9 1-1.9 2.1-2.8 3.1-1.8 1.9-3.6 3.7-5.5 5.4-1.7 1.5-3.5 2.9-5.4 4.1-1.4.9-3.2 1.7-4.9 1.7-1.5 0-2.7-.8-3.7-1.8-1.2-1.2-2.1-2.7-2.9-4.1-.9-1.7-1.7-3.6-2.3-5.4-.7-1.9-1.3-3.8-1.9-5.7-.5-1.6-.9-3.2-1.3-4.8-.7-1.2-.9-1.8-1-2.5zm132.6-2.9c1.5-1.2 3.2-2.2 5-3 1.8-.8 3.7-1.2 5.6-1.2 1.3 0 2.8.1 4 .5.8.3 1.6.5 2.4.8l.7.2-2.6 5.7-.7-.9c-.3-.4-.5-.7-.8-1.1-.3-.4-.7-.8-1.1-1.1-.5-.4-1-.7-1.6-.9-.7-.3-1.5-.3-2.2-.3-1.2 0-2.3.3-3.3.9-1.2.6-2.2 1.5-3.2 2.4-1 1-1.9 2.2-2.7 3.4-.8 1.3-1.5 2.6-2.1 4-.5 1.3-1 2.6-1.3 4-.3 1.1-.5 2.2-.5 3.4 0 .7.1 1.3.2 2 .1.6.3 1.2.7 1.7.4.6 1 .9 1.6 1.2.9.4 2.1.5 3 .5 2.3 0 4.5-.6 6.6-1.8 2.2-1.2 4.2-2.7 6-4.3 1.7-1.6 3.4-3.2 4.8-5.1 1.1-1.3 2.1-2.7 3.1-4l2.9-3.7c.1-.5.2-.9.3-1.4.1-.5.2-1.1.2-1.7 0-1.2-1.7-1.2-2.5-1.2H345l.8-2.3 11.6-1-6.2 19.3c.2-.4.4-.8.5-1.1 1-2.1 2.1-4.2 3.2-6.2 1.2-2 2.5-4 3.9-5.8 1.3-1.6 2.8-3.1 4.5-4.3 1.5-1.1 3.3-1.8 5.2-1.8 1.3 0 2.4.4 3.3 1.3.8.8 1.2 1.8 1.2 2.9 0 1.1-.2 2.2-.5 3.3l-.9 3-3 9.3c.1-.2.2-.4.3-.7 1-2.2 2.1-4.3 3.2-6.4 1.2-2.1 2.5-4.2 4-6.2 1.3-1.8 2.9-3.4 4.7-4.7 1.6-1.2 3.4-1.9 5.4-1.9 1.3 0 2.6.4 3.5 1.4.7.9 1.1 1.9 1.1 3s-.2 2.2-.5 3.2-.6 2-1 3l-2.7 8.2c-.4 1.3-.8 2.6-1.1 4-.2.7-.4 1.8-.4 2.5 0 .2.1.4.2.6.1.1.3.2.4.2.7 0 1.5-.4 2.1-.8 1-.7 2-1.4 2.9-2.3 1.1-1 2.2-2.1 3.2-3.2s2-2.2 3-3.4c.8-1 1.7-2 2.5-3 .5-.6 1.1-1.3 1.6-2l2.1-2.9v-.1c.3-1 .7-2.5.7-3.6 0-.3 0-.7-.3-1-.2-.2-.5-.4-.8-.5-.4-.1-.9-.2-1.3-.3-.5 0-1-.1-1.5-.1h-1l.8-2.3 11.8-1L404 308c.4-.9.8-1.9 1.2-2.8 1.1-2.6 2.3-5.1 3.6-7.5 1.2-2.3 2.5-4.5 4-6.5 1.3-1.7 2.7-3.4 4.4-4.7 1.4-1.1 3.1-1.8 4.9-1.8.8 0 1.6.2 2.3.6.7.4 1.2.9 1.6 1.6.4.7.7 1.4.9 2.2.2.8.3 1.6.3 2.4 0 1.7-.3 3.4-.7 5-.5 1.8-1.2 3.6-2 5.3-.9 1.7-1.9 3.4-3 4.9-1.1 1.5-2.3 2.9-3.7 4.2-1.3 1.2-2.6 2.2-4.2 2.9-1.4.7-2.9 1.1-4.4 1.1-.8 0-1.6-.1-2.3-.3-.6-.2-1.1-.4-1.6-.7-.4-.2-.7-.5-1-.8l-.6 1.8c-.5 1.4-.9 2.8-1.4 4.2-.4 1.3-.9 2.6-1.3 3.9-.3 1.1-.7 2.2-1 3.3-.2.7-.5 1.4-.7 2.1l-.1.4-7.7 1 10.2-31.2c-.5.7-1 1.3-1.5 2l-2.7 3.3c-1.1 1.3-2.3 2.5-3.4 3.7-1.2 1.2-2.5 2.4-3.8 3.5-1.2 1-2.5 1.9-3.9 2.7-1.2.6-2.4 1.1-3.8 1.1-1 0-1.8-.4-2.4-1.1-.6-.7-.9-1.5-.9-2.4 0-.6.1-1.2.2-1.7.1-.7.3-1.5.6-2.2.2-.8.5-1.6.7-2.3.2-.7.5-1.5.7-2.2l2.9-9c.2-.8.4-1.6.6-2.5.1-.5.3-1.2.3-1.7 0-.4-.2-.8-.3-1.1-.2-.4-.5-.4-.9-.4-1.2 0-2.3.7-3.2 1.5-1.4 1.2-2.5 2.6-3.6 4.1-1.3 1.8-2.4 3.6-3.4 5.6-1 2-2 3.9-2.9 5.9-.8 1.7-1.5 3.4-2.2 5.1-.4 1.1-.9 2.1-1.2 3.2l-.1.4-7.7 1.2 6.2-19c.4-1.2.8-2.5 1.1-3.7.2-.8.5-1.8.5-2.6 0-.4-.1-.8-.3-1.2-.2-.4-.7-.4-1.1-.4-1.3 0-2.4.7-3.3 1.6-1.4 1.3-2.6 2.7-3.6 4.3-1.3 1.8-2.4 3.8-3.4 5.8s-2 4-2.9 6c-.7 1.6-1.4 3.3-2.1 5-.3.9-.7 1.8-1 2.8l-.1.4-7.6 1.2 5.7-17.6-.3.3c-.9 1.2-2 2.6-2.3 3-.9 1.2-1.9 2.4-2.9 3.5-1.2 1.3-2.5 2.6-3.8 3.7-1.4 1.3-3 2.4-4.6 3.4-1.7 1-3.4 1.9-5.3 2.5-1.9.6-3.8 1-5.8 1-1.3 0-2.7-.1-3.9-.6-1-.4-1.9-1-2.7-1.8-.7-.7-1.2-1.6-1.5-2.6-.8-2.4-.5-5 .3-7.3 1.6-5.8 6.1-11.4 9.5-14.2zm-195.5-29.5c3-2.4 6.3-4.4 9.9-5.9 3.6-1.5 7.3-2.2 11.2-2.2 5.8 0 11.5 1.3 15.9 5.4 4.3 4 5.8 9.3 5.8 15 0 5.3-1.1 10.4-3.1 15.3-2 5.1-4.8 9.9-8.4 14.1-3.5 4.2-7.6 7.7-12.3 10.4-4.7 2.7-9.8 4.1-15.2 4.1-4.4 0-8.8-.9-12.6-3.2-3.6-2.2-6-5.4-7.4-9.3l-.1-.4 8.1-8.5v1.6c.1 2.2.4 4.5 1 6.7.5 1.9 1.3 3.8 2.5 5.4 1 1.5 2.3 2.7 3.9 3.6 1.7 1 3.6 1.3 5.6 1.3 4 0 7.6-1.3 10.9-3.4 3.7-2.4 6.8-5.6 9.4-9.2 2.8-4 4.9-8.4 6.5-13 1.6-4.8 2.5-9.8 2.5-14.8 0-2.3-.3-4.6-.8-6.8-.5-2.1-1.3-4.1-2.5-5.8-1.1-1.6-2.4-3-4-4s-3.5-1.5-5.4-1.5c-3.7 0-7.2 1.1-10.3 3.1-3.4 2.1-6.3 4.8-8.7 7.9l-.9 1.2-1.4-6.6-.1-.5zm26.8 24.7c-2.2-1.1-4.3-2.2-6.5-3.3-2.5-1.2-5.1-2.3-7.7-3.3-2.5-.9-5.1-1.8-7.7-2.4-2.4-.6-4.9-1-7.4-1.2h-.9l1.3 6.5.7-.1c1.3-.3 2.7-.5 4.1-.5 1.9 0 3.8.2 5.7.6 2.1.4 4.2.9 6.2 1.6 2.1.7 4.1 1.5 6.1 2.4 1.8.8 3.5 1.7 5.2 2.7-.7 2.1-1.5 4.1-2.5 6-1 2-2.2 4-3.5 5.8-1.2 1.7-2.6 3.4-4.1 4.9-1.3 1.3-2.7 2.5-4.3 3.6l-.7.5 1.6 1.5.4-.2c3.4-1.8 6.2-4.3 8.6-7.3 2.4-3 4.5-6.3 6.1-9.8 1.6-3.3 2.8-6.8 3.7-10.3.7-2.8 1.2-5.8 1.2-8.7 0-2.1-.2-4.3-.8-6.4-.5-1.9-1.2-3.7-2.2-5.4-.9-1.5-2.1-2.8-3.6-3.9-1.4-1-3.1-1.7-4.8-1.9l-1-.1 1.2 5.2.4.1c1.1.4 2 1 2.7 1.9.8 1.1 1.5 2.3 2 3.6.6 1.5.9 3 1.2 4.6.2 1.6.3 3.2.3 4.9.1 2.7-.3 5.6-1 8.4zm85.9-5.5c-.2.1-.3.3-.5.4-2 1.9-3.8 4-5.3 6.3-1.7 2.6-3.1 5.3-4.1 8.2-1.1 3-1.7 6.2-1.7 9.4 0 2 .4 4.1 1.6 5.8 1.2 1.8 3.6 2.2 5.6 2.2.5 0 1 0 1.5-.1h.2c-.4-.3-.7-.7-1-1-.7-.8-1.3-1.6-1.7-2.5-.6-1.1-1-2.3-1.2-3.5-.3-1.5-.4-3.2-.4-4.7 0-2.8.3-5.6.9-8.3.6-2.4 1.4-4.7 2.5-6.8 1-2 2.2-3.8 3.6-5.4zm1.2 30.6c1.1-.9 2.2-2 3.1-3 1.7-1.8 3.1-3.8 4.4-5.9 1.5-2.4 2.7-5 3.7-7.7 1-2.8 1.6-5.7 1.6-8.7 0-2.1-.4-4.1-1.5-6-.9-1.6-2.3-2.3-4.2-2.3-1.9 0-3.5.8-4.8 2.1-1.6 1.5-3 3.4-4 5.4-1.2 2.2-2.1 4.6-2.7 7-.6 2.2-1 4.5-1 6.8 0 2.6.3 5.7 1.7 8 1 1.8 2.2 3.2 3.7 4.3zm45.1-30.6c-.2.1-.3.3-.5.4-2 1.9-3.8 4-5.3 6.3-1.7 2.6-3.1 5.3-4.1 8.2-1.1 3-1.7 6.2-1.7 9.4 0 2 .4 4.1 1.6 5.8 1.2 1.8 3.6 2.2 5.6 2.2.5 0 1 0 1.5-.1h.2c-.4-.3-.7-.7-1-1-.7-.8-1.3-1.6-1.7-2.5-.6-1.1-1-2.3-1.2-3.5-.3-1.5-.4-3.2-.4-4.7 0-2.8.3-5.6.9-8.3.6-2.4 1.4-4.7 2.5-6.8 1-2 2.2-3.8 3.6-5.4zm1.2 30.6c1.1-.9 2.2-2 3.1-3 1.7-1.8 3.1-3.8 4.4-5.9 1.5-2.4 2.7-5 3.7-7.7 1-2.8 1.6-5.7 1.6-8.7 0-2.1-.4-4.1-1.5-6-.9-1.6-2.3-2.3-4.2-2.3-1.9 0-3.5.8-4.8 2.1-1.6 1.5-3 3.4-4 5.4-1.2 2.2-2.1 4.6-2.7 7-.6 2.2-1 4.5-1 6.8 0 2.6.3 5.7 1.7 8 1 1.8 2.1 3.2 3.7 4.3zm116 1l1.9-1.5.2 1.1c0 .2.2.5.3.7.1.3.3.6.6.9.3.3.6.6 1 .8.4.2.9.3 1.4.3 1 0 1.9-.4 2.7-.9 1-.7 1.9-1.7 2.6-2.7.9-1.2 1.6-2.5 2.2-3.8.7-1.4 1.3-2.9 1.7-4.4.5-1.4.8-2.9 1.1-4.4.2-1.2.4-2.4.4-3.6 0-.4 0-.8-.1-1.3-.1-.4-.2-.7-.3-1.1-.2-.3-.3-.5-.6-.8-.2-.2-.4-.2-.7-.2-1.4 0-2.7.9-3.7 1.9-1.5 1.5-2.8 3.2-3.9 4.9-1.3 2-2.4 4.1-3.5 6.3l-2.7 6-.6 1.8zm-54.1-29.7c3.4 0 6.8-.1 10.2-.5 3.1-.3 6.1-.8 9.1-1.5 2.9-.7 5.8-1.5 8.6-2.6 2.9-1 5.7-2.3 8.4-3.6l.3-.1 6.4 2.9-1.6.6c-3.5 1.3-7.1 2.5-10.7 3.4-3.2.8-6.4 1.5-9.6 1.9-3.2.5-6.5.8-9.8 1.1-3.7.3-7.4.5-11.2.7h-.7l-.2-2.3h.8zm87.9 31l-.4-.4c-.5-.5-.9-1.1-1.2-1.7-.4-.7-.7-1.6-.8-2.4-.2-1-.3-2.1-.3-3.2 0-1.9.2-3.8.6-5.6.4-1.6.9-3.2 1.7-4.6.2-.3.3-.6.5-.9-.6.7-1.1 1.4-1.6 2.1-1.1 1.7-2 3.5-2.7 5.5-.7 2-1.1 4.1-1.1 6.2 0 1.3.3 2.7 1 3.8.8 1.1 2.3 1.3 3.6 1.3.2-.1.4-.1.7-.1zm3-1.2c.7-.6 1.4-1.3 1.9-1.9 1.1-1.2 2.1-2.5 2.9-3.9 1-1.6 1.8-3.3 2.5-5.1.7-1.8 1-3.8 1-5.7 0-1.4-.3-2.7-.9-3.9-.6-1-1.4-1.4-2.6-1.4-1.2 0-2.2.5-3.1 1.3-1.1 1-2 2.2-2.6 3.6-.8 1.5-1.4 3-1.8 4.7-.4 1.5-.6 3-.6 4.5 0 1.7.2 3.8 1.1 5.3.5.9 1.2 1.8 2.2 2.5zm34.6-.3c.9-.7 1.8-1.6 2.6-2.5 1.1-1.2 2.1-2.6 2.9-4 .9-1.5 1.6-3.1 2.2-4.8.5-1.6.8-3.3.8-5 0-.6-.1-1.3-.2-1.9-.1-.6-.3-1.2-.6-1.7-.2-.5-.6-.8-1-1.1-.5-.3-1.1-.4-1.6-.4-1 0-1.9.5-2.7 1.1-1.1.9-2 1.9-2.7 3.1-.9 1.4-1.5 2.9-2 4.4-.5 1.7-.8 3.3-.8 5.1 0 1.6.2 3.6 1 5.1.6 1.1 1.3 1.9 2.1 2.6zm-.4-26.9c1.3-.1 2.5-.5 3.7-.9 1.7-.6 3.3-1.4 4.7-2.4 1.4-1 2.6-2.2 3.5-3.6.9-1.3 1.4-2.8 1.4-4.4 0-1-.3-1.9-1-2.6-.7-.7-1.6-1-2.6-1s-1.9.3-2.6.9c-.9.7-1.7 1.6-2.3 2.6-.7 1.1-1.4 2.3-1.9 3.5-.5 1.2-1 2.5-1.5 3.8-.4 1.1-.7 2.1-1.1 3.2 0 .3-.1.6-.3.9z"/></symbol><symbol viewBox="0 0 41.756 41.756" id="modal-close"><path d="M27.948 20.878L40.291 8.536a5 5 0 1 0-7.07-7.071L20.878 13.809 8.535 1.465a5 5 0 0 0-7.07 7.071l12.342 12.342L1.465 33.22a5 5 0 1 0 7.07 7.071l12.343-12.342 12.343 12.343c.976.977 2.256 1.464 3.535 1.464s2.56-.487 3.535-1.464a5 5 0 0 0 0-7.071L27.948 20.878z"/></symbol><symbol viewBox="0 0 477.175 477.175" id="owl-next"><path d="M360.731 229.075l-225.1-225.1c-5.3-5.3-13.8-5.3-19.1 0s-5.3 13.8 0 19.1l215.5 215.5-215.5 215.5c-5.3 5.3-5.3 13.8 0 19.1 2.6 2.6 6.1 4 9.5 4 3.4 0 6.9-1.3 9.5-4l225.1-225.1c5.3-5.2 5.3-13.8.1-19z"/></symbol><symbol viewBox="0 0 477.175 477.175" id="owl-prev"><path d="M145.188 238.575l215.5-215.5c5.3-5.3 5.3-13.8 0-19.1s-13.8-5.3-19.1 0l-225.1 225.1c-5.3 5.3-5.3 13.8 0 19.1l225.1 225c2.6 2.6 6.1 4 9.5 4s6.9-1.3 9.5-4c5.3-5.3 5.3-13.8 0-19.1l-215.4-215.5z"/></symbol><symbol viewBox="0 0 512 512" id="scroll"><path d="M369.018 46.807C338.818 16.622 298.682 0 256 0 167.87 0 96.169 71.7 96.169 159.831V352.17C96.169 440.3 167.87 512 256 512s159.831-71.7 159.831-159.831V159.831c0-42.682-16.623-82.818-46.813-113.024zm19.723 305.362c0 73.194-59.546 132.741-132.741 132.741s-132.741-59.546-132.741-132.741V159.831C123.259 86.636 182.806 27.09 256 27.09c35.447 0 68.784 13.806 93.863 38.873 25.072 25.084 38.878 58.421 38.878 93.868v192.338z"/><path d="M256.014 83.979c-7.481 0-13.545 6.064-13.545 13.545v31.831c0 7.481 6.064 13.545 13.545 13.545s13.545-6.064 13.545-13.545V97.524c0-7.481-6.065-13.545-13.545-13.545zm0 68.12c-7.481 0-13.545 6.064-13.545 13.545v4.007c0 7.481 6.064 13.545 13.545 13.545s13.545-6.064 13.545-13.545v-4.007c0-7.481-6.065-13.545-13.545-13.545z"/></symbol><symbol viewBox="0 0 626.52 626.52" id="search"><path d="M611.531 581.494L470.974 440.937c41.573-46.902 67.614-107.85 67.614-175.292C538.566 119.155 419.389 0 272.899 0 126.431 0 7.254 119.155 7.254 265.645c0 146.447 119.177 265.602 265.645 265.602 60.042 0 114.819-20.755 159.37-54.432l141.938 141.98c5.178 5.156 11.908 7.724 18.661 7.724s13.506-2.567 18.662-7.724c10.313-10.29 10.313-26.988.001-37.301zM60.025 265.645c0-117.364 95.51-212.896 212.896-212.896 117.408 0 212.896 95.509 212.896 212.896s-95.488 212.832-212.896 212.832c-117.386 0-212.896-95.446-212.896-212.832z"/></symbol><symbol viewBox="0 0 1438.7 506" id="superwebstar"><style>.st0{fill-rule:evenodd;clip-rule:evenodd}</style><path d="M156.2 226.2l34.6 107.1 112.5-.2-91.1 65.9 35 107-91-66.3L65.3 506l35-107-91.2-65.9 112.6.2zM78.3 89.8C72.9 92 56.8 79 44 67.2 33 56.9 24.2 49.6 22.1 47.9l.3-.6c.6-1.4.9-2.9.9-4.5 0-6.4-5.2-11.6-11.7-11.6C5.2 31.1 0 36.3 0 42.7s5.2 11.6 11.6 11.6L41 148.2s64.5-18.3 112-16.8c47.5-1.4 112 16.8 112 16.8l29.3-93.8c6.4 0 11.6-5.2 11.6-11.6 0-6.4-5.2-11.6-11.6-11.6-6.4 0-11.7 5.2-11.7 11.6 0 1.6.3 3.1.9 4.5l.3.6c-2.1 1.7-10.9 9-21.9 19.3C249.3 79 233.1 92 227.8 89.8c-5.4-2.2-16.3-49.6-18.6-66.9 4.9-1.4 8.5-5.9 8.5-11.2 0-6.4-5.2-11.6-11.6-11.6-6.4 0-11.7 5.2-11.7 11.6 0 3.3 1.4 6.3 3.6 8.4-2.3 3.9-37.1 62.2-45 62.2-8 0-42.7-58.3-45-62.2 2.2-2.1 3.6-5.1 3.6-8.4C111.6 5.2 106.4 0 100 0c-6.4 0-11.6 5.2-11.6 11.6 0 5.4 3.6 9.9 8.5 11.2-2.3 17.4-13.2 64.9-18.6 67z"/><path d="M88.1 158.5c-.5-2.5 1.1-4.8 3.5-5.3 2.4-.4 4.7 1.2 5.2 3.7s-1.1 4.8-3.5 5.3-4.7-1.2-5.2-3.7zm52.9-3.2c-2.4 0-4.4-2-4.4-4.6 0-2.5 2-4.6 4.4-4.6 2.4 0 4.4 2 4.4 4.6 0 2.6-2 4.6-4.4 4.6zm22.7 0c-2.4 0-4.4-2-4.4-4.6 0-2.5 2-4.6 4.4-4.6 2.4 0 4.4 2 4.4 4.6 0 2.6-2 4.6-4.4 4.6zm45.9 1.2c.5-2.5 2.8-4.1 5.2-3.7 2.4.4 4 2.8 3.5 5.3s-2.8 4.1-5.2 3.7c-2.4-.4-4-2.8-3.5-5.3zm45.3 22.7l7.9-24.4-1.2-.3c-24.8-6.5-51.9-11.6-77.3-14.4-10.6-1.2-21.3-2-32-2s-21.4.8-32 2c-25.3 2.9-52.5 8-77.2 14.4l-.5.1 6.9 25.1C80.6 171.6 120.9 164 153 164c31.5-.1 71 7.3 101.9 15.2zm-23-18.6c.5-2.5 2.8-4.1 5.2-3.7 2.4.4 4 2.8 3.5 5.3s-2.8 4.1-5.2 3.7c-2.4-.4-4-2.8-3.5-5.3zm-162.6-3.2c2.4-.4 4.7 1.2 5.2 3.7s-1.1 4.8-3.5 5.3c-2.4.4-4.7-1.2-5.2-3.7s1.1-4.9 3.5-5.3zM704.2 175.8c-8.4 4.2-25.3 8.4-46.9 8.4-50.1 0-87.8-31.6-87.8-89.9 0-55.6 37.7-93.3 92.8-93.3 22.1 0 36.1 4.7 42.2 7.9L699 27.6c-8.7-4.2-21.1-7.4-35.8-7.4-41.6 0-69.3 26.6-69.3 73.3 0 43.5 25 71.4 68.3 71.4 14 0 28.2-2.9 37.4-7.4l4.6 18.3zm40-171.9l35.3 75.7c4.5 10.5 8.7 20.8 12.9 31.4h.5c3.2-9.2 6.6-19.5 11.1-32.2l27.7-74.9H856l-37.2 91.2c-9.8 23.7-20.8 50.9-33.2 67.5-11.6 14.5-24.5 21.9-40.3 21.9-5.8 0-10-.5-12.9-1.6l2.4-18.7c1.8.5 4.5.8 8.4.8 18.5-.3 29.3-17.9 34.8-30.6 1.8-4 1.3-6.6-.8-10.8l-59-119.7h26zm259.1 0v177.7h-22.9V23.2h-82.5v158.4H875V3.9h128.3zm132.1 94.4h-69.1v64.1h77v19.2h-99.9V3.9h95.9v19.2h-73v56.1h69.1v19.1zM1173.1 6c11.1-1.8 25.6-3.4 44-3.4 22.7 0 39.3 5.3 49.8 14.8 9.8 8.4 15.6 21.4 15.6 37.2 0 16.1-4.7 28.7-13.7 38-12.1 12.9-31.9 19.5-54.3 19.5-6.9 0-13.2-.3-18.5-1.6v71.2h-22.9V6zm22.9 85.7c5 1.3 11.3 1.8 19 1.8 27.7 0 44.5-13.4 44.5-38 0-23.5-16.6-34.8-41.9-34.8-10 0-17.7.8-21.6 1.8v69.2zM423.8 322.6c10-2.1 25.8-3.7 41.9-3.7 22.9 0 37.7 4 48.8 12.9 9.2 6.9 14.8 17.4 14.8 31.4 0 17.1-11.3 32.2-30 39v.5c16.9 4.2 36.6 18.2 36.6 44.5 0 15.3-6.1 26.9-15 35.6-12.4 11.3-32.4 16.6-61.4 16.6-15.8 0-27.9-1.1-35.6-2.1V322.6zm23 72.7h20.8c24.3 0 38.5-12.7 38.5-29.8 0-20.8-15.8-29-39-29-10.5 0-16.6.8-20.3 1.6v57.2zm0 85.2c4.5.8 11.1 1.1 19.2 1.1 23.7 0 45.6-8.7 45.6-34.5 0-24.3-20.8-34.3-45.9-34.3h-19v67.7zm211.9-65.9h-69.1v64.1h77v19.2h-99.9V320.2h95.9v19.2h-73v56.1h69.1v19.1zM796 320.2v19.2h-76.7v47.7c5.5-.8 16.1-1.3 21.9-1.3 16.9 0 33.5 3.7 45.9 11.9 13.4 8.7 22.7 22.7 22.7 43.5 0 16.6-5.5 29.3-14.8 38.5-14.5 14.2-38.5 19.8-62.7 19.8-16.1 0-28.2-1.1-35.8-2.1V320.2H796zm-76.7 160c5.3 1.1 11.3 1.3 19.2 1.3 14.2 0 28.7-4.5 37.4-13.7 6.1-6.3 9.8-15 9.8-26.1 0-13.7-5.8-22.9-14.5-29-9.2-6.3-21.1-9-33.7-9-5.3 0-12.4.5-18.2 1.1v75.4zm301 11.9c-8.4 4.2-25.3 8.4-46.9 8.4-50.1 0-87.8-31.6-87.8-89.9 0-55.6 37.7-93.3 92.8-93.3 22.1 0 36.1 4.7 42.2 7.9l-5.5 18.7c-8.7-4.2-21.1-7.4-35.8-7.4-41.6 0-69.3 26.6-69.3 73.3 0 43.5 25 71.4 68.3 71.4 14 0 28.2-2.9 37.4-7.4l4.6 18.3zm71.7-152.4h-54v-19.5h131.5v19.5h-54.3v158.2H1092V339.7zM1196.7 442l-18.5 55.9h-23.7l60.4-177.7h27.7l60.6 177.7h-24.5l-19-55.9h-63zm58.2-17.9l-17.4-51.1c-4-11.6-6.6-22.1-9.2-32.4h-.5c-2.6 10.5-5.5 21.4-9 32.2l-17.4 51.4h53.5zm74.4-101.8c11.1-1.8 25.6-3.4 44-3.4 22.7 0 39.3 5.3 49.8 14.8 9.8 8.4 15.6 21.4 15.6 37.2 0 16.1-4.7 28.7-13.7 38-12.1 12.9-31.9 19.5-54.3 19.5-6.9 0-13.2-.3-18.5-1.6V498h-22.9V322.3zm22.9 85.7c5 1.3 11.3 1.8 19 1.8 27.7 0 44.5-13.4 44.5-38 0-23.5-16.6-34.8-41.9-34.8-10 0-17.7.8-21.6 1.8V408z"/></symbol><symbol viewBox="0 0 348.077 348.077" id="tel"><path d="M340.273 275.083l-53.755-53.761c-10.707-10.664-28.438-10.34-39.518.744l-27.082 27.076a792.327 792.327 0 0 1-5.344-2.973c-17.102-9.476-40.509-22.464-65.14-47.113-24.704-24.701-37.704-48.144-47.209-65.257-1.003-1.813-1.964-3.561-2.913-5.221l18.176-18.149 8.936-8.947c11.097-11.1 11.403-28.826.721-39.521L73.39 8.194c-10.682-10.68-28.421-10.356-39.518.744l-15.15 15.237.414.411c-5.08 6.482-9.325 13.958-12.484 22.02C3.74 54.28 1.927 61.603 1.098 68.941-6 127.785 20.89 181.564 93.866 254.541c100.875 100.868 182.167 93.248 185.674 92.876 7.638-.913 14.958-2.738 22.397-5.627 7.992-3.122 15.463-7.361 21.941-12.43l.331.294 15.348-15.029c11.074-11.098 11.393-28.83.716-39.542z"/></symbol><symbol viewBox="0 0 548.358 548.358" id="vk"><path d="M545.451 400.298c-.664-1.431-1.283-2.618-1.858-3.569-9.514-17.135-27.695-38.167-54.532-63.102l-.567-.571-.284-.28-.287-.287h-.288c-12.18-11.611-19.893-19.418-23.123-23.415-5.91-7.614-7.234-15.321-4.004-23.13 2.282-5.9 10.854-18.36 25.696-37.397 7.807-10.089 13.99-18.175 18.556-24.267 32.931-43.78 47.208-71.756 42.828-83.939l-1.701-2.847c-1.143-1.714-4.093-3.282-8.846-4.712-4.764-1.427-10.853-1.663-18.278-.712l-82.224.568c-1.332-.472-3.234-.428-5.712.144l-3.713.859-1.431.715-1.136.859c-.952.568-1.999 1.567-3.142 2.995-1.137 1.423-2.088 3.093-2.848 4.996-8.952 23.031-19.13 44.444-30.553 64.238-7.043 11.803-13.511 22.032-19.418 30.693-5.899 8.658-10.848 15.037-14.842 19.126-4 4.093-7.61 7.372-10.852 9.849-3.237 2.478-5.708 3.525-7.419 3.142-1.715-.383-3.33-.763-4.859-1.143-2.663-1.714-4.805-4.045-6.42-6.995-1.622-2.95-2.714-6.663-3.285-11.136-.568-4.476-.904-8.326-1-11.563-.089-3.233-.048-7.806.145-13.706.198-5.903.287-9.897.287-11.991 0-7.234.141-15.085.424-23.555.288-8.47.521-15.181.716-20.125.194-4.949.284-10.185.284-15.705s-.336-9.849-1-12.991a44.442 44.442 0 0 0-2.99-9.137c-1.335-2.95-3.289-5.232-5.853-6.852-2.569-1.618-5.763-2.902-9.564-3.856-10.089-2.283-22.936-3.518-38.547-3.71-35.401-.38-58.148 1.906-68.236 6.855-3.997 2.091-7.614 4.948-10.848 8.562-3.427 4.189-3.905 6.475-1.431 6.851 11.422 1.711 19.508 5.804 24.267 12.275l1.715 3.429c1.334 2.474 2.666 6.854 3.999 13.134 1.331 6.28 2.19 13.227 2.568 20.837.95 13.897.95 25.793 0 35.689-.953 9.9-1.853 17.607-2.712 23.127-.859 5.52-2.143 9.993-3.855 13.418-1.715 3.426-2.856 5.52-3.428 6.28-.571.76-1.047 1.239-1.425 1.427a21.387 21.387 0 0 1-7.71 1.431c-2.667 0-5.901-1.334-9.707-4-3.805-2.666-7.754-6.328-11.847-10.992-4.093-4.665-8.709-11.184-13.85-19.558-5.137-8.374-10.467-18.271-15.987-29.691l-4.567-8.282c-2.855-5.328-6.755-13.086-11.704-23.267-4.952-10.185-9.329-20.037-13.134-29.554-1.521-3.997-3.806-7.04-6.851-9.134l-1.429-.859c-.95-.76-2.475-1.567-4.567-2.427a30.301 30.301 0 0 0-6.567-1.854l-78.229.568c-7.994 0-13.418 1.811-16.274 5.428l-1.143 1.711c-.571.953-.859 2.475-.859 4.57 0 2.094.571 4.664 1.714 7.707 11.42 26.84 23.839 52.725 37.257 77.659 13.418 24.934 25.078 45.019 34.973 60.237 9.897 15.229 19.985 29.602 30.264 43.112 10.279 13.515 17.083 22.176 20.412 25.981 3.333 3.812 5.951 6.662 7.854 8.565l7.139 6.851c4.568 4.569 11.276 10.041 20.127 16.416 8.853 6.379 18.654 12.659 29.408 18.85 10.756 6.181 23.269 11.225 37.546 15.126 14.275 3.905 28.169 5.472 41.684 4.716h32.834c6.659-.575 11.704-2.669 15.133-6.283l1.136-1.431c.764-1.136 1.479-2.901 2.139-5.276.668-2.379 1-5 1-7.851-.195-8.183.428-15.558 1.852-22.124 1.423-6.564 3.045-11.513 4.859-14.846 1.813-3.33 3.859-6.14 6.136-8.418 2.282-2.283 3.908-3.666 4.862-4.142.948-.479 1.705-.804 2.276-.999 4.568-1.522 9.944-.048 16.136 4.429 6.187 4.473 11.99 9.996 17.418 16.56 5.425 6.57 11.943 13.941 19.555 22.124 7.617 8.186 14.277 14.271 19.985 18.274l5.708 3.426c3.812 2.286 8.761 4.38 14.853 6.283 6.081 1.902 11.409 2.378 15.984 1.427l73.087-1.14c7.229 0 12.854-1.197 16.844-3.572 3.998-2.379 6.373-5 7.139-7.851.764-2.854.805-6.092.145-9.712-.677-3.611-1.344-6.136-2.008-7.563z"/></symbol></svg>